<svg version="1.1" id="Layer" xmlns="http://www.w3.org/2000/svg" x="0" y="0" viewBox="0 0 74.5 49.8" style="enable-background:new 0 0 74.5 49.8" xml:space="preserve"><style>.st1{fill:url(#SVGID_00000049934290484511993510000002918996895999516339_)}.st2{fill:url(#SVGID_00000021838005137694698790000006139065172138983083_)}.st3{fill:url(#SVGID_00000118358322057038218090000000304850225802292611_)}.st4{fill:url(#SVGID_00000068661601101848997510000006048811350640076180_)}.st5{fill:url(#SVGID_00000099637612599003011150000018361548558951892126_)}</style><linearGradient id="SVGID_1_" gradientUnits="userSpaceOnUse" x1="1" y1="27.125" x2="73.5" y2="27.125" gradientTransform="matrix(1 0 0 -1 0 52)"><stop offset="0" style="stop-color:#ed1f79"/><stop offset="1" style="stop-color:#65c8d0"/></linearGradient><path d="M60 47.2H14.5c-6.6 0-12-5.4-12-12V14.5c0-6.6 5.4-12 12-12H60c6.6 0 12 5.4 12 12v20.8c0 6.6-5.4 11.9-12 11.9z" style="fill:none;stroke:url(#SVGID_1_);stroke-width:3;stroke-miterlimit:10"/><linearGradient id="SVGID_00000001663440387765867760000004566469872954101390_" gradientUnits="userSpaceOnUse" x1="19.72" y1="26.445" x2="27.39" y2="26.445" gradientTransform="matrix(1 0 0 -1 0 52)"><stop offset="0" style="stop-color:#ed1f79"/><stop offset="1" style="stop-color:#65c8d0"/></linearGradient><path style="fill:url(#SVGID_00000001663440387765867760000004566469872954101390_)" d="M21.1 15.7c.7 0 1.4.1 2.1.2.4.1.8.2 1.1.5.4.3.7.8.8 1.2.2.9.3 1.7.3 2.6v.9c0 .6 0 1.2.2 1.7.1.3.3.6.6.8.4.2.8.3 1.2.2v3.5c-.4 0-.8.1-1.2.2-.3.2-.5.4-.6.7-.2.5-.3 1.1-.2 1.7v1.2c0 .9-.1 1.7-.4 2.5-.2.6-.6 1-1.2 1.3-.9.3-1.9.5-2.9.4h-1.3V32c.5 0 .9 0 1.3-.2.2-.1.4-.3.5-.6.1-.6.2-1.2.1-1.8 0-.8 0-1.5.2-2.2.1-.4.3-.7.6-1 .3-.3.6-.5 1-.7-.4-.1-.7-.3-1-.6-.2-.3-.4-.6-.5-1-.2-.7-.3-1.4-.3-2.2 0-.6 0-1.1-.1-1.7-.1-.3-.2-.6-.5-.8-.3-.2-.6-.3-1-.3h-.5v-3.3h1.7z"/><linearGradient id="SVGID_00000045597353034644935120000017141767761522072498_" gradientUnits="userSpaceOnUse" x1="28.48" y1="26.455" x2="34.68" y2="26.455" gradientTransform="matrix(1 0 0 -1 0 52)"><stop offset="0" style="stop-color:#ed1f79"/><stop offset="1" style="stop-color:#65c8d0"/></linearGradient><path style="fill:url(#SVGID_00000045597353034644935120000017141767761522072498_)" d="M33.8 20.6c1.1 3.1 1.1 6.6 0 9.7-.7 1.8-1.6 3.5-2.8 5.1h-2.6c1.5-3 2.4-6.3 2.4-9.6 0-1.5-.2-3.1-.5-4.6-.5-1.9-1.1-3.7-1.9-5.5H31c1.2 1.5 2.1 3.1 2.8 4.9z"/><linearGradient id="SVGID_00000154427845021208943410000016466144103429444255_" gradientUnits="userSpaceOnUse" x1="36.98" y1="26.455" x2="43.18" y2="26.455" gradientTransform="matrix(1 0 0 -1 0 52)"><stop offset="0" style="stop-color:#ed1f79"/><stop offset="1" style="stop-color:#65c8d0"/></linearGradient><path style="fill:url(#SVGID_00000154427845021208943410000016466144103429444255_)" d="M40.6 15.7h2.6c-.8 1.8-1.5 3.6-1.9 5.5-.3 1.5-.5 3-.5 4.6.1 3.4.9 6.7 2.4 9.6h-2.6c-1.2-1.6-2.1-3.3-2.8-5.1-.5-1.5-.8-3.2-.8-4.8 0-1.7.3-3.3.8-4.9.7-1.8 1.6-3.4 2.8-4.9z"/><linearGradient id="SVGID_00000012440940419294653910000009108215769977916849_" gradientUnits="userSpaceOnUse" x1="44.82" y1="26.455" x2="51.03" y2="26.455" gradientTransform="matrix(1 0 0 -1 0 52)"><stop offset="0" style="stop-color:#ed1f79"/><stop offset="1" style="stop-color:#65c8d0"/></linearGradient><path style="fill:url(#SVGID_00000012440940419294653910000009108215769977916849_)" d="M50.2 20.6c1.1 3.1 1.1 6.6 0 9.7-.7 1.8-1.6 3.5-2.8 5.1h-2.6c1.5-3 2.4-6.3 2.4-9.6 0-1.5-.2-3.1-.5-4.6-.5-1.9-1.1-3.7-1.9-5.5h2.6c1.2 1.5 2.1 3.1 2.8 4.9z"/><linearGradient id="SVGID_00000001631825510068157470000017192572348961065355_" gradientUnits="userSpaceOnUse" x1="53.45" y1="24.35" x2="57.91" y2="24.35" gradientTransform="matrix(1 0 0 -1 0 52)"><stop offset="0" style="stop-color:#ed1f79"/><stop offset="1" style="stop-color:#65c8d0"/></linearGradient><path style="fill:url(#SVGID_00000001631825510068157470000017192572348961065355_)" d="M53.5 20.1H58v4.2h-4.5v-4.2zm0 6.7H58v3.4c.1 1.1-.2 2.1-.8 3-.7.9-1.6 1.5-2.7 1.9l-1-1.8c.6-.2 1.2-.6 1.6-1.1.3-.4.5-.8.5-1.3h-2.1v-4.1z"/></svg>