<svg data-name="Layer 1" xmlns="http://www.w3.org/2000/svg" viewBox="0 0 48 48"><rect width="48" height="48" rx="12" style="fill:#4e7fa4"/><path d="M33.2 9H14.8A5.8 5.8 0 0 0 9 14.8v18.4a5.8 5.8 0 0 0 5.8 5.8h18.4a5.8 5.8 0 0 0 5.8-5.8V14.8A5.8 5.8 0 0 0 33.2 9Zm1.67 3.46h.66v5.08h-5.07v-5.09Zm-15.15 8.46a5.27 5.27 0 1 1-1 3.08 5.27 5.27 0 0 1 1-3.08ZM36.08 33.2a2.88 2.88 0 0 1-2.88 2.88H14.8a2.88 2.88 0 0 1-2.88-2.88V20.92h4.48a8.09 8.09 0 0 0-.6 3.08 8.2 8.2 0 1 0 15.8-3.08h4.48Z" style="fill:#fff"/></svg>