<svg id="Layer" xmlns="http://www.w3.org/2000/svg" viewBox="0 0 263.26 78.39"><defs><style>.cls-1{fill:#1c9bd5}.cls-3{fill:#508773}.cls-10{fill:#fff}.cls-14{fill:#bdc3c3}.cls-12{fill:#dfe5e6}</style></defs><path class="cls-1" d="M0 62.39h263.26v16H0z"/><g style="opacity:.63"><path class="cls-3" d="M52.5 31.32a11.64 11.64 0 0 0 2.13-5.94c.59-8.25-5.68-15-14.17-14.32a13.08 13.08 0 0 0-11.69 14.05 12.94 12.94 0 0 0 2 6.21Z"/><path class="cls-1" d="M27.74 44.83Q28.9 53.59 30 62.39h23c.86-5.77 1.68-11.58 2.51-17.39-7.71.08-22.51-.09-27.77-.17Z"/><path d="M57.44 31.32H26.05c-.09 0-.09.14-.08.26q.95 7 1.86 14h27.58c.67-4.78 1.34-9.53 2.03-14.26Z" style="fill:#2c2f31"/><path d="M36.52 20.65A1.51 1.51 0 1 1 35 19.11a1.53 1.53 0 0 1 1.52 1.54Zm0 6.35A1.51 1.51 0 1 1 35 25.49 1.53 1.53 0 0 1 36.52 27Zm13.04-6.35a1.51 1.51 0 1 1-1.5-1.54 1.52 1.52 0 0 1 1.5 1.54Zm0 6.35a1.51 1.51 0 1 1-1.5-1.54 1.52 1.52 0 0 1 1.5 1.54Zm-6.44-9.42a1.51 1.51 0 1 1-1.51-1.53 1.52 1.52 0 0 1 1.51 1.53Zm0 6.42a1.51 1.51 0 1 1-1.51-1.53A1.52 1.52 0 0 1 43.12 24Z" style="fill:#f8f6c8"/></g><g style="opacity:.7"><path d="M229.26 38.48v-4.14a1.36 1.36 0 0 0-1.34-1.34h-20.78a1.36 1.36 0 0 0-1.34 1.38v28.01h23.46v-7.28a5.55 5.55 0 0 0 5.24-5.61v-5.41a5.55 5.55 0 0 0-5.24-5.61Zm2.82 11a3.09 3.09 0 0 1-2.82 3.1V41a3.08 3.08 0 0 1 2.82 3.1Z" style="fill:#5377bb"/></g><g style="opacity:.71"><path d="M176.17 18.38h17.09a4 4 0 0 1 3.93 4v36.04a4 4 0 0 1-3.93 4h-17.09a4 4 0 0 1-3.94-4V22.36a4 4 0 0 1 3.94-3.98Z" style="fill-rule:evenodd;fill:#2c2f31"/><path class="cls-1" d="M173.56 22.13h22.3v35.66h-22.3z"/><path class="cls-10" d="M189.73 55.67a.65.65 0 0 0 .64.65H193a.65.65 0 0 0 .64-.65v-2.6a.65.65 0 0 0-.64-.65h-2.58a.65.65 0 0 0-.64.65Zm-4.63 0a.65.65 0 0 0 .64.65h2.58a.65.65 0 0 0 .64-.65v-2.6a.65.65 0 0 0-.64-.65h-2.58a.65.65 0 0 0-.64.65Zm-4.63 0a.65.65 0 0 0 .64.65h2.58a.65.65 0 0 0 .64-.65v-2.6a.65.65 0 0 0-.64-.65h-2.58a.65.65 0 0 0-.64.65Zm-4.63 0a.65.65 0 0 0 .64.65h2.58a.65.65 0 0 0 .64-.65v-2.6a.65.65 0 0 0-.64-.65h-2.58a.65.65 0 0 0-.64.65Z"/><path d="M185.24 20.26a.72.72 0 1 1-.72-.73.73.73 0 0 1 .72.73Zm.63 39.79a1.16 1.16 0 1 1-1.16-1.16 1.16 1.16 0 0 1 1.16 1.16Z" style="fill:#bdc3c3;fill-rule:evenodd"/><path class="cls-10" d="M175.97 24.22h17.58v26.01h-17.58z"/><path class="cls-12" d="M175.97 41.55h17.58v6.01h-17.58z"/><path class="cls-3" d="M175.97 24.22h17.58v4.3h-17.58z"/><path style="fill:#eeedee" d="M177.77 25.64h13.89v1.16h-13.89z"/><path class="cls-14" d="M179.27 43.19h10.96v.61h-10.96zm0 1.06h10.96v.61h-10.96zm0 1.06h10.96v.61h-10.96z"/><path d="M189.29 35.67a4.53 4.53 0 1 1-4.53-4.58 4.56 4.56 0 0 1 4.53 4.58Z" style="fill:#4576bb"/><path class="cls-14" d="M184.76 40.25a4.47 4.47 0 0 0 3.24-1.41 3.43 3.43 0 0 0-6.53 0 4.51 4.51 0 0 0 3.29 1.41Z"/><path class="cls-10" d="M186.05 33.78a1.29 1.29 0 1 1-1.29-1.31 1.3 1.3 0 0 1 1.29 1.31Z"/></g><g style="opacity:.67"><path d="M164.62 0h-101c-1.76 0-3.19 1.46-3.19 4.11v53.54c0 2.24.78 4.74 3.79 4.74H164c3 0 3.8-2.5 3.8-4.74V4.11c.01-2.65-1.42-4.11-3.18-4.11Z" style="fill:#00868e"/><path d="M164.62 0h-101c-1.76 0-3.19 1.46-3.19 4.11v53.54c0 2.24.78 4.74 3.79 4.74 0 0 12.43-58.28 103.57-58.28.02-2.65-1.41-4.11-3.17-4.11Z" style="opacity:.2;fill:#00868e"/><path class="cls-12" d="M108.1 30.07a6.36 6.36 0 1 0 6.35-6.4 6.38 6.38 0 0 0-6.35 6.4Z"/></g></svg>