<svg id="Layer" xmlns="http://www.w3.org/2000/svg" xmlns:xlink="http://www.w3.org/1999/xlink" viewBox="0 0 74.49 49.75"><defs><style>.cls-1{fill:none;stroke-miterlimit:10;stroke-width:3px;stroke:url(#linear-gradient);}.cls-2{fill:url(#linear-gradient-2);}.cls-3{fill:url(#linear-gradient-3);}.cls-4{fill:url(#linear-gradient-4);}.cls-5{fill:url(#linear-gradient-5);}.cls-6{fill:url(#linear-gradient-6);}</style><linearGradient id="linear-gradient" x1="1" y1="27.13" x2="73.5" y2="27.13" gradientTransform="matrix(1, 0, 0, -1, 0, 52)" gradientUnits="userSpaceOnUse"><stop offset="0" stop-color="#ed1f79"/><stop offset="1" stop-color="#65c8d0"/></linearGradient><linearGradient id="linear-gradient-2" x1="19.72" y1="26.44" x2="27.39" y2="26.44" xlink:href="#linear-gradient"/><linearGradient id="linear-gradient-3" x1="28.48" y1="26.45" x2="34.68" y2="26.45" xlink:href="#linear-gradient"/><linearGradient id="linear-gradient-4" x1="36.98" y1="26.45" x2="43.18" y2="26.45" xlink:href="#linear-gradient"/><linearGradient id="linear-gradient-5" x1="44.82" y1="26.45" x2="51.03" y2="26.45" xlink:href="#linear-gradient"/><linearGradient id="linear-gradient-6" x1="53.45" y1="24.35" x2="57.91" y2="24.35" xlink:href="#linear-gradient"/></defs><path class="cls-1" d="M60,47.25H14.5a12,12,0,0,1-12-12V14.5a12,12,0,0,1,12-12H60a12,12,0,0,1,12,12V35.25A12,12,0,0,1,60,47.25Z"/><path class="cls-2" d="M21.11,15.69a9.07,9.07,0,0,1,2.08.21,2.72,2.72,0,0,1,1.08.49,2.75,2.75,0,0,1,.84,1.25,8.28,8.28,0,0,1,.3,2.62v.82a5,5,0,0,0,.21,1.72,1.44,1.44,0,0,0,.6.75,2.19,2.19,0,0,0,1.18.25v3.51a2.65,2.65,0,0,0-1.17.25,1.44,1.44,0,0,0-.62.73A4.51,4.51,0,0,0,25.38,30v1.2A6.71,6.71,0,0,1,25,33.71,2.58,2.58,0,0,1,23.85,35a6.59,6.59,0,0,1-2.85.4H19.72V32.07a3.59,3.59,0,0,0,1.34-.17,1.06,1.06,0,0,0,.48-.6,7.26,7.26,0,0,0,.14-1.8,7.7,7.7,0,0,1,.24-2.24,2.63,2.63,0,0,1,.57-1.05,3.35,3.35,0,0,1,1-.66,3.52,3.52,0,0,1-1-.56A2.36,2.36,0,0,1,22,24a6.93,6.93,0,0,1-.29-2.17,11.81,11.81,0,0,0-.08-1.68,1.52,1.52,0,0,0-.46-.84,1.43,1.43,0,0,0-1-.27h-.46V15.69Z"/><path class="cls-3" d="M33.84,20.58a14.83,14.83,0,0,1,0,9.71A21.72,21.72,0,0,1,31,35.4h-2.6a21.72,21.72,0,0,0,2.44-9.64,20.15,20.15,0,0,0-.5-4.58,30.61,30.61,0,0,0-1.94-5.49H31A19.32,19.32,0,0,1,33.84,20.58Z"/><path class="cls-4" d="M40.58,15.69h2.6a30.31,30.31,0,0,0-1.93,5.49,19.61,19.61,0,0,0-.51,4.58,21.86,21.86,0,0,0,2.44,9.64h-2.6a21.72,21.72,0,0,1-2.8-5.11,14.7,14.7,0,0,1,0-9.71A19.15,19.15,0,0,1,40.58,15.69Z"/><path class="cls-5" d="M50.18,20.58a14.57,14.57,0,0,1,0,9.71,22,22,0,0,1-2.79,5.11H44.82a21.72,21.72,0,0,0,2.44-9.64,20.15,20.15,0,0,0-.5-4.58,28.89,28.89,0,0,0-1.94-5.49h2.61A19.15,19.15,0,0,1,50.18,20.58Z"/><path class="cls-6" d="M53.45,20.09h4.46v4.18H53.45Zm0,6.74h4.46v3.44a5,5,0,0,1-.79,3,6.52,6.52,0,0,1-2.7,1.94l-1-1.83a4.44,4.44,0,0,0,1.63-1.1,2.18,2.18,0,0,0,.5-1.29h-2.1Z"/></svg>