<svg id="Layer_1" data-name="Layer 1" xmlns="http://www.w3.org/2000/svg" xmlns:xlink="http://www.w3.org/1999/xlink" viewBox="0 0 480 480"><defs><style>.cls-1{fill:url(#linear-gradient);}.cls-2{fill:url(#linear-gradient-2);}.cls-3{fill:url(#linear-gradient-3);}</style><linearGradient id="linear-gradient" y1="309.77" x2="224" y2="309.77" gradientUnits="userSpaceOnUse"><stop offset="0" stop-color="#ed1f79"/><stop offset="1" stop-color="#65c8d0"/></linearGradient><linearGradient id="linear-gradient-2" x1="16" y1="112.38" x2="464" y2="112.38" xlink:href="#linear-gradient"/><linearGradient id="linear-gradient-3" x1="256" y1="309.77" x2="480" y2="309.77" xlink:href="#linear-gradient"/></defs><path class="cls-1" d="M224,469.55V252.88L8.84,144,0,139.54V367.19a16.2,16.2,0,0,0,9.42,14.75L224,480Z"/><path class="cls-2" d="M23.16,115.05,240,224.77,456.84,115.05l7.16-3.62L247.16,1.71a15.84,15.84,0,0,0-14.32,0L16,111.43Z"/><path class="cls-3" d="M471.16,144,256,252.88V480l214.58-98.06A16.2,16.2,0,0,0,480,367.19V139.54Z"/></svg>