<svg id="Layer" xmlns="http://www.w3.org/2000/svg" viewBox="0 0 263.26 78.39"><defs><style>.cls-1{fill:#1c9bd5;}.cls-2{opacity:0.63;}.cls-3{fill:#508773;}.cls-4,.cls-9{fill:#2c2f31;}.cls-5{fill:#f8f6c8;}.cls-6{opacity:0.7;}.cls-7{fill:#5377bb;}.cls-8{opacity:0.71;}.cls-11,.cls-9{fill-rule:evenodd;}.cls-10{fill:#fff;}.cls-11,.cls-14{fill:#bdc3c3;}.cls-12{fill:#dfe5e6;}.cls-13{fill:#eeedee;}.cls-15{fill:#4576bb;}.cls-16{opacity:0.67;}.cls-17,.cls-18{fill:#00868e;}.cls-18{opacity:0.2;}</style></defs><rect class="cls-1" y="62.39" width="263.26" height="16"/><g class="cls-2"><path class="cls-3" d="M52.5,31.32a11.64,11.64,0,0,0,2.13-5.94c.59-8.25-5.68-15-14.17-14.32A13.08,13.08,0,0,0,28.77,25.11a12.94,12.94,0,0,0,2,6.21Z"/><path class="cls-1" d="M27.74,44.83Q28.9,53.59,30,62.39H53c.86-5.77,1.68-11.58,2.51-17.39C47.8,45.08,33,44.91,27.74,44.83Z"/><path class="cls-4" d="M57.44,31.32H26.05c-.09,0-.09.14-.08.26q.95,7,1.86,14H55.41C56.08,40.8,56.75,36.05,57.44,31.32Z"/><path class="cls-5" d="M36.52,20.65A1.51,1.51,0,1,1,35,19.11,1.53,1.53,0,0,1,36.52,20.65Z"/><path class="cls-5" d="M36.52,27A1.51,1.51,0,1,1,35,25.49,1.53,1.53,0,0,1,36.52,27Z"/><path class="cls-5" d="M49.56,20.65a1.51,1.51,0,1,1-1.5-1.54A1.52,1.52,0,0,1,49.56,20.65Z"/><path class="cls-5" d="M49.56,27a1.51,1.51,0,1,1-1.5-1.54A1.52,1.52,0,0,1,49.56,27Z"/><path class="cls-5" d="M43.12,17.58a1.51,1.51,0,1,1-1.51-1.53A1.52,1.52,0,0,1,43.12,17.58Z"/><path class="cls-5" d="M43.12,24a1.51,1.51,0,1,1-1.51-1.53A1.52,1.52,0,0,1,43.12,24Z"/></g><g class="cls-6"><path class="cls-7" d="M229.26,38.48V34.34A1.36,1.36,0,0,0,227.92,33H207.14a1.36,1.36,0,0,0-1.34,1.38V62.39h23.46V55.11a5.55,5.55,0,0,0,5.24-5.61V44.09A5.55,5.55,0,0,0,229.26,38.48Zm2.82,11a3.09,3.09,0,0,1-2.82,3.1V41a3.08,3.08,0,0,1,2.82,3.1Z"/></g><g class="cls-8"><path class="cls-9" d="M176.17,18.38h17.09a4,4,0,0,1,3.93,4V58.42a4,4,0,0,1-3.93,4H176.17a4,4,0,0,1-3.94-4V22.36A4,4,0,0,1,176.17,18.38Z"/><rect class="cls-1" x="173.56" y="22.13" width="22.3" height="35.66"/><path class="cls-10" d="M189.73,55.67a.65.65,0,0,0,.64.65H193a.65.65,0,0,0,.64-.65v-2.6a.65.65,0,0,0-.64-.65h-2.58a.65.65,0,0,0-.64.65Z"/><path class="cls-10" d="M185.1,55.67a.65.65,0,0,0,.64.65h2.58a.65.65,0,0,0,.64-.65v-2.6a.65.65,0,0,0-.64-.65h-2.58a.65.65,0,0,0-.64.65Z"/><path class="cls-10" d="M180.47,55.67a.65.65,0,0,0,.64.65h2.58a.65.65,0,0,0,.64-.65v-2.6a.65.65,0,0,0-.64-.65h-2.58a.65.65,0,0,0-.64.65Z"/><path class="cls-10" d="M175.84,55.67a.65.65,0,0,0,.64.65h2.58a.65.65,0,0,0,.64-.65v-2.6a.65.65,0,0,0-.64-.65h-2.58a.65.65,0,0,0-.64.65Z"/><path class="cls-11" d="M185.24,20.26a.72.72,0,1,1-.72-.73A.73.73,0,0,1,185.24,20.26Z"/><path class="cls-11" d="M185.87,60.05a1.16,1.16,0,1,1-1.16-1.16A1.16,1.16,0,0,1,185.87,60.05Z"/><rect class="cls-10" x="175.97" y="24.22" width="17.58" height="26.01"/><rect class="cls-12" x="175.97" y="41.55" width="17.58" height="6.01"/><rect class="cls-3" x="175.97" y="24.22" width="17.58" height="4.3"/><rect class="cls-13" x="177.77" y="25.64" width="13.89" height="1.16"/><rect class="cls-14" x="179.27" y="43.19" width="10.96" height="0.61"/><rect class="cls-14" x="179.27" y="44.25" width="10.96" height="0.61"/><rect class="cls-14" x="179.27" y="45.31" width="10.96" height="0.61"/><path class="cls-15" d="M189.29,35.67a4.53,4.53,0,1,1-4.53-4.58A4.56,4.56,0,0,1,189.29,35.67Z"/><path class="cls-14" d="M184.76,40.25A4.47,4.47,0,0,0,188,38.84a3.43,3.43,0,0,0-6.53,0A4.51,4.51,0,0,0,184.76,40.25Z"/><path class="cls-10" d="M186.05,33.78a1.29,1.29,0,1,1-1.29-1.31A1.3,1.3,0,0,1,186.05,33.78Z"/></g><g class="cls-16"><path class="cls-17" d="M164.62,0h-101c-1.76,0-3.19,1.46-3.19,4.11V57.65c0,2.24.78,4.74,3.79,4.74H164c3,0,3.8-2.5,3.8-4.74V4.11C167.81,1.46,166.38,0,164.62,0Z"/><path class="cls-18" d="M164.62,0h-101c-1.76,0-3.19,1.46-3.19,4.11V57.65c0,2.24.78,4.74,3.79,4.74,0,0,12.43-58.28,103.57-58.28C167.81,1.46,166.38,0,164.62,0Z"/><path class="cls-12" d="M108.1,30.07a6.36,6.36,0,1,0,6.35-6.4A6.38,6.38,0,0,0,108.1,30.07Z"/></g></svg>