<svg id="Layer_1" data-name="Layer 1" xmlns="http://www.w3.org/2000/svg" viewBox="0 0 1185.49 294.3"><defs><style>.cls-1{fill:#00868e;}</style></defs><path class="cls-1" d="M204.66,202.25c-8.57-1.7-11.31-17-11.31-37.44,0-36.59,8.57-88.5,8.57-105.52,0-3.69-.34-6-1.37-6-3.77,0-17.49,35.46-52.46,141-1,2.84-3.43,4-6.17,4-3.43,0-6.86-2-6.86-5.1V192c4.46-23.83,12-100.42,12-144.38,0-19-1.37-31.77-5.14-31.77-5.49,0-16.8,32.33-37,124-3.09,14.46-5.83,30.63-8.91,48.22-1,7.09-6.86,9.93-11.66,9.93-4.46,0-8.23-2-8.23-5.11L90.68,30.18c.37-5.2-2.1-11.8-4.58-11.46L0,58.66,13.93,17.17C13.93,16.09,86.14.75,89.54.75c5.14,0,11.91,10.52,11.83,23.74l-8,107C119.14,9.64,135.06,0,148.78,0c10.28,0,17.48,23.54,17.48,70.07,0,16.16-.68,35.45-2.74,57.58C179,73.19,201.58,25.53,213.58,25.53c4.8,0,7.88,7.94,7.88,26.66v6.24c-1.71,52.48-8.22,99-8.22,118.29,0,6,.68,9.36,2.4,9.36,3.42,0,46-27.5,52.52-33.19,1.29-1.13.41,9.93.41,9.93-51.46,44.45-51.91,39.72-62.19,39.72Z"/><path class="cls-1" d="M330.68,144.65c-.28-3.72-.28-7.44-.28-10.85-14.41,38.42-34.55,52.37-49.24,52.37-9,0-15.78-5.27-17.41-13.64a38.89,38.89,0,0,1-.54-5.57c0-28.2,43.53-57.33,66.65-70.65l1.63-7.13c.55-3.4,3.81-4.64,7.08-4.64,4.35,0,8.7,2.17,8.7,6.19V91s-1.09,16.74-1.09,37.19l.28,15.8c1.36,35.32,5.71,53.6,14.14,53.6,7.89,0,19.59-16.11,36.19-49.88,1.09-2.17,2.17-3.1,3.26-3.1s2.18,1.55,2.18,4a14,14,0,0,1-1.36,5c-19.32,39.35-35.1,57-46.8,57C340.47,210.64,332.31,186.48,330.68,144.65Zm-4.63-32.23c-16.05,9.92-46.79,34.4-46.79,53.92a14.42,14.42,0,0,0,.27,3.4c.54,2.79,2.45,4.34,5.44,4.34C294.22,174.08,313,158,326.05,112.42Z"/><path class="cls-1" d="M390.8,208.79V95.07c0-4,4.08-6.19,8.16-6.19,3.81,0,7.89,2.16,7.89,6.19v36.56c4.36-19.83,11.16-32.84,18-32.84,4.9,0,10.07,7.13,13.87,23.86,4.36,19.83,7.9,31.6,15,31.6,3.54,0,7.62-2.79,13.33-8.67a8.84,8.84,0,0,1,5.71-2.79c1.91,0,3.27.93,3.27,2.48a4.93,4.93,0,0,1-1.91,3.4c-9,9.61-15.78,14-20.95,14-9.25,0-14.14-14-19.58-36.87-2.45-10.23-4.63-14.57-7.08-14.57-9,0-17.41,66-19.59,98.22-.27,3.72-4.08,5.58-7.89,5.58C394.88,215,390.8,212.81,390.8,208.79Z"/><path class="cls-1" d="M468.07,172.22c0-17.35,1.63-40,4.89-66.92.55-3.72,4.09-5.27,7.62-5.27,4.08,0,8.44,2.17,8.44,6.2v.62c-3.54,31-5.44,53.91-5.44,69.09,0,16.42,2.17,24.48,6.8,24.48,7.34,0,20.4-18.9,40.53-53.6,1.09-1.86,2.18-2.79,3-2.79,1.36,0,2.17,1.55,2.17,3.72a13,13,0,0,1-1.63,5.88c-24.49,42.14-41.9,62-52.51,62C472.42,215.6,468.07,200.73,468.07,172.22Zm5.71-91.4c0-6.51,4.35-13.63,10.88-13.94h.28c5.44,0,8.43,5.26,8.43,10.84,0,6.2-3.54,12.39-10.34,12.39C476.5,90.11,473.78,85.78,473.78,80.82Z"/><path class="cls-1" d="M585.05,144.65c-.27-3.72-.27-7.44-.27-10.85-14.42,38.42-34.55,52.37-49.24,52.37-9,0-15.78-5.27-17.41-13.64a37.53,37.53,0,0,1-.55-5.57c0-28.2,43.53-57.33,66.66-70.65l1.63-7.13c.54-3.4,3.81-4.64,7.07-4.64,4.36,0,8.71,2.17,8.71,6.19V91s-1.09,16.74-1.09,37.19l.27,15.8c1.36,35.32,5.72,53.6,14.15,53.6,7.89,0,19.59-16.11,36.18-49.88,1.09-2.17,2.18-3.1,3.27-3.1s2.18,1.55,2.18,4a14.2,14.2,0,0,1-1.36,5c-19.32,39.35-35.1,57-46.8,57C594.85,210.64,586.69,186.48,585.05,144.65Zm-4.62-32.23c-16,9.92-46.8,34.4-46.8,53.92a13.91,13.91,0,0,0,.28,3.4c.54,2.79,2.44,4.34,5.44,4.34C548.6,174.08,567.37,158,580.43,112.42Z"/><path class="cls-1" d="M679.89,157.35c0-34.08,0-57.32,3.53-140.42,0,0,26.82-.93,35.52-.93,0,0-13.63,112.23-13.63,148.48,0,22.31,4,35.63,14.31,35.63,11.12,0,29.39-16.11,58.4-53.6,1.59-2.17,3.17-3.1,4.76-3.1s2.79,1.55,2.79,3.72a8.56,8.56,0,0,1-2,5.57c-29.4,38.11-57.21,62-76.68,62C690.22,214.67,679.89,197.63,679.89,157.35Z"/><path class="cls-1" d="M772.78,183.38a98.34,98.34,0,0,1,.81-12.09c.55-5.57,3.54-24.16,4.9-26.95-7.08-7.44-10.07-15.8-10.07-23.55,0-17,13.88-31.91,27.21-31.91,12.51,0,24.48,12.7,24.48,48.64,0,3.41,0,7.13-.27,11.15a171.55,171.55,0,0,0,17.41-.92h1.37c3,0,4.62,1.24,4.62,2.78,0,1.24-1.63,2.79-4.9,3.1-4.89.62-15.51.93-19.59.93-4.62,39.66-19.31,58.87-30.74,58.87C779.58,213.43,772.78,203.21,772.78,183.38Zm41.89-43.69c0-29.44-11.42-40.9-14.69-40.9-8.16,0-14.15,9.92-14.15,20.76,0,12.39,7.62,26,28.57,28.51Zm-1.36,14.25c-5.71-.62-16-1.86-20.13-3.72-3,13.64-4.08,24.48-4.08,32.54,0,11.77,2.72,17.66,6.26,17.66C801.07,200.42,809.5,184.93,813.31,153.94Z"/><path class="cls-1" d="M821.74,288.11,835.62,94.45c.27-3.72,3.81-5.27,7.62-5.27,4.08,0,8.16,1.86,8.16,5.89l-6,91.72c13.61-70.65,25.85-94.2,35.37-94.2,10.34,0,16.87,28.82,16.87,53.3,0,4-.27,7.74-.54,11.15,10.88-4,20.67-6.51,21.22-6.82l2.17-.31c2.72,0,4.36,1.24,4.36,2.79,0,1.24-1.36,2.79-4.08,3.41a219.15,219.15,0,0,0-25.85,8.37C890.85,184,879.69,191.12,871,191.12c-6.53,0-11.7-4-11.7-9.6,0-5.89,5.71-13.32,21.22-20.14a203.87,203.87,0,0,0,1.63-27.27c0-13.94-1.36-26.64-4.62-26.64-6,0-18.23,40-40,181.87-.54,3.41-3.8,5-7.34,5C826.1,294.3,821.74,292.13,821.74,288.11ZM877,170.05c-5.17,2.48-8.7,4.34-8.7,5.89l.27.31a2.25,2.25,0,0,0,1.63.93C872.35,177.18,875.34,174.39,877,170.05Z"/><path class="cls-1" d="M912.07,153.32v-3.41c.54-24.16,12.51-64.75,33.19-64.75h.55c12.78.62,18.77,22,18.77,38.42,0,8-1.36,14.87-4.36,17.35l-32.1,14.25c0,33.16,6,47.72,14.69,47.72,10.07,0,24.22-19.83,37.27-53.3.82-2.47,2.18-3.71,3-3.71,1.36,0,2.17,1.55,2.17,4a14.06,14.06,0,0,1-.81,4.65c-16.33,41.21-34.28,61.35-48.16,61.35C922.14,215.91,912.07,195.15,912.07,153.32Zm46.52-19.21.27-5.88c0-18.6-4.89-27-10.61-27-8.16,0-18.22,16.73-19.86,45.24Z"/><path class="cls-1" d="M975.19,208.79V95.07c0-4,4.08-6.19,8.16-6.19,3.81,0,7.89,2.16,7.89,6.19v36.56c4.35-19.83,11.15-32.84,18-32.84,4.89,0,10.06,7.13,13.87,23.86,4.35,19.83,7.89,31.6,15,31.6,3.54,0,7.62-2.79,13.34-8.67a8.84,8.84,0,0,1,5.71-2.79c1.9,0,3.26.93,3.26,2.48a4.91,4.91,0,0,1-1.9,3.4c-9,9.61-15.78,14-21,14-9.25,0-14.15-14-19.59-36.87-2.45-10.23-4.62-14.57-7.07-14.57-9,0-17.41,66-19.59,98.22-.27,3.72-4.08,5.58-7.89,5.58C979.27,215,975.19,212.81,975.19,208.79Z"/><path class="cls-1" d="M1113.94,144.65c-.27-3.72-.27-7.44-.27-10.85-14.42,38.42-34.55,52.37-49.25,52.37-9,0-15.78-5.27-17.41-13.64a38.89,38.89,0,0,1-.54-5.57c0-28.2,43.53-57.33,66.65-70.65l1.64-7.13c.54-3.4,3.8-4.64,7.07-4.64,4.35,0,8.71,2.17,8.71,6.19V91s-1.09,16.74-1.09,37.19l.27,15.8c1.36,35.32,5.71,53.6,14.15,53.6,7.89,0,19.59-16.11,36.18-49.88,1.09-2.17,2.18-3.1,3.27-3.1s2.17,1.55,2.17,4a14,14,0,0,1-1.36,5c-19.31,39.35-35.09,57-46.79,57C1123.73,210.64,1115.57,186.48,1113.94,144.65Zm-4.63-32.23c-16,9.92-46.79,34.4-46.79,53.92a14.42,14.42,0,0,0,.27,3.4,5.05,5.05,0,0,0,5.44,4.34C1077.48,174.08,1096.26,158,1109.31,112.42Z"/></svg>