<svg id="Layer_1" data-name="Layer 1" xmlns="http://www.w3.org/2000/svg" viewBox="0 0 330.73 330.73"><defs><style>.cls-1{fill:#00868e;}.cls-2{fill:none;stroke:#00868e;stroke-miterlimit:10;stroke-width:12px;}</style></defs><path class="cls-1" d="M221.58,266.84c-9-1.62-11.91-16.2-11.91-35.65,0-34.83,9-84.26,9-100.46,0-3.51-.36-5.67-1.44-5.67-4,0-18.41,33.76-55.22,134.22-1.09,2.7-3.61,3.78-6.5,3.78-3.61,0-7.22-1.89-7.22-4.86v-.79a2.6,2.6,0,0,1,.06-.56c4.7-23,12.57-95.5,12.57-137.19,0-18.1-1.44-30.25-5.41-30.25-5.77,0-17.69,30.79-39,118-3.25,13.77-6.14,29.17-9.38,45.91-1.09,6.75-7.22,9.45-12.28,9.45-4.69,0-8.66-1.89-8.66-4.86L101.59,103c.28-3.5-1-7.68-2.61-9.7a2.84,2.84,0,0,0-3.29-.75l-83.42,35a2.88,2.88,0,0,1-3.82-3.66l11.88-32a2.83,2.83,0,0,1,2-1.78C32.9,87.28,97.11,75,100.39,75c5.39,0,12.49,10,12.46,22.47,0,.1,0,.19,0,.28L107.4,163.9a2.88,2.88,0,0,0,5.66,1c22.16-83.32,36.84-90.59,49.69-90.59,10.83,0,18.41,22.42,18.41,66.71,0,9.44-.28,20-1,31.62a2.88,2.88,0,0,0,5.59,1.16c15.43-42,34.4-75.18,45.2-75.18,5.06,0,8.3,7.56,8.3,25.39v5.94c-1.8,50-8.66,94.25-8.66,112.62,0,5.67.72,8.91,2.53,8.91,3.61,0,89.36-74.1,90.8-74.1s.43,17.34.08,22.24a2.89,2.89,0,0,1-1.1,2.07c-53.18,41.49-88.2,65.07-99.26,65.45a2.32,2.32,0,0,1-.53,0Z"/><circle class="cls-2" cx="165.37" cy="165.37" r="159.37"/></svg>