<svg data-name="Layer 1" xmlns="http://www.w3.org/2000/svg" viewBox="0 0 249.11 289.7"><defs><linearGradient id="a" y1="144.85" x2="249.11" y2="144.85" gradientUnits="userSpaceOnUse"><stop offset="0" stop-color="#ed1e79"/><stop offset="1" stop-color="#65c8d0"/></linearGradient></defs><path d="m235.72 25.41-.38-.19a9.24 9.24 0 0 0-5.94-.77 8.31 8.31 0 0 0-5 3.84l-19 33c-.19.2-.19.39-.38.39l-11.08 19.51c-.19.19-.19.38-.38.38L165.19 131l14 7.86 59.22-102.52a7.75 7.75 0 0 0 .76-6.14 8.64 8.64 0 0 0-3.45-4.79ZM150.24 239.9l-.39.19a5.43 5.43 0 0 0-3.06 2.3l-.19.19a7.11 7.11 0 0 0-.58 4l.19.39a5 5 0 0 0 2.49 3.06 5.29 5.29 0 0 0 4.22.58 6 6 0 0 0 3.26-2.49 4.92 4.92 0 0 0 .57-4v-.38a5.62 5.62 0 0 0-2.49-3.07 6.09 6.09 0 0 0-4-.76Zm-1.92-6.52a12.65 12.65 0 0 1 9.2 1.34l.19.19a11.38 11.38 0 0 1 5.56 7.29 12.14 12.14 0 0 1-8.62 14.95 12.39 12.39 0 0 1-9.4-1.15 12.75 12.75 0 0 1-5.75-7.48v-.19a12.79 12.79 0 0 1 1.35-9.2l.19-.19a11.76 11.76 0 0 1 7.28-5.37ZM96.38 48.22a3.19 3.19 0 0 1-4-2.3 3.49 3.49 0 0 1 2.3-4.22l4-1a3.29 3.29 0 0 1 4.21 2.3 3.37 3.37 0 0 1-2.3 4.21Zm104.27 80.89a3.19 3.19 0 0 1 2.3-4 3.39 3.39 0 0 1 4.21 2.3l15 55.78a24.32 24.32 0 0 1-2.3 17.63 23.39 23.39 0 0 1-14 10.74l-118.3 31.59a22.49 22.49 0 0 1-17.63-2.3 23.53 23.53 0 0 1-10.74-14L27 106.49a23 23 0 0 1 16.28-28.18l118.27-31.62A21.92 21.92 0 0 1 179 49a23.1 23.1 0 0 1 10.92 14l2.08 8 6.71-11.69-10-37.57a20.61 20.61 0 0 0-9.53-12.24 20.09 20.09 0 0 0-15.33-1.91l-142 38a20 20 0 0 0-12.3 9.53 19.38 19.38 0 0 0-2.11 15.34l52.9 197.61a21.1 21.1 0 0 0 9.39 12.27 20.75 20.75 0 0 0 15.53 1.92l142-38a20.64 20.64 0 0 0 14.38-24.91l-29.9-111.17a3.45 3.45 0 0 1 2.49-4 3.18 3.18 0 0 1 4 2.3l29.9 111.17a27 27 0 0 1-2.68 20.51A28.19 28.19 0 0 1 229 250.82L87 288.77a27.14 27.14 0 0 1-33.16-19L.92 72.18A27.08 27.08 0 0 1 20.09 39L162.12.88A27.46 27.46 0 0 1 195.28 20l8.24 31.06 15.15-26.26a14.69 14.69 0 0 1 9-6.9 14.26 14.26 0 0 1 11.12 1.53l.19.19a14.11 14.11 0 0 1 6.71 8.82 14.26 14.26 0 0 1-1.53 11.12l-60.95 105.65c0 .19-.2.57-.39.57 0 .19-.19.39-.19.58l-.19.38a5.71 5.71 0 0 1-1.53 1.53l-18.6 12.85a6.84 6.84 0 0 1-2.11.76c-6.51 9-11.5 9.59-16.29 6.33-2.68-1.73-4.79-5-7.09-8.43-3.26-5-7.09-10.74-12.84-11.51-5-.76-9.39 4-13.61 8.63-2.68 3.07-5.37 5.94-8.24 7.67-6.52 4-13.42 3.26-21.85-10.74a3.35 3.35 0 1 1 5.72-3.45c5.75 9.4 9.39 10.35 12.65 8.44 2.11-1.34 4.41-3.84 6.71-6.33 5.36-5.94 11.11-12.07 19.55-10.92 8.62 1.34 13.41 8.43 17.44 14.56 2.11 2.88 3.83 5.56 5.37 6.52s3.45.19 6.9-4.41a5.07 5.07 0 0 1-.2-1.72l1.73-22.62a10.37 10.37 0 0 1 .77-2.3l.19-.19.19-.19c.19-.2.19-.58.38-.77l29.52-51.18-3.8-14.57a16.29 16.29 0 0 0-20.13-11.5L45 84.83a15.87 15.87 0 0 0-9.78 7.67 16.07 16.07 0 0 0-1.72 12.26l32.2 120.38a16.22 16.22 0 0 0 7.67 10 16 16 0 0 0 12.26 1.54L204.1 205a16.34 16.34 0 0 0 9.77-7.67 16.07 16.07 0 0 0 1.73-12.26Zm-4-43.32a3.39 3.39 0 0 1 5.94 3.26l-5.17 9a3.42 3.42 0 0 1-4.6 1.15 3.22 3.22 0 0 1-1.34-4.6Zm-12.07 20.89a3.39 3.39 0 0 1 5.94 3.26l-5.18 9a3.41 3.41 0 0 1-4.6 1.15c-1.72-.77-2.1-2.88-1.34-4.6Zm-21.88 30.67-1.15 16.1 13.22-9.2Z" style="fill:url(#a)"/></svg>