<svg id="Layer_1" data-name="Layer 1" xmlns="http://www.w3.org/2000/svg" viewBox="0 0 1920 1080"><defs><style>.cls-1{fill:#00868e}</style></defs><path class="cls-1" d="M571.92 766.91c-8.57-1.71-11.32-17-11.32-37.45 0-36.59 8.57-88.5 8.57-105.52 0-3.69-.34-6-1.37-6-3.77 0-17.48 35.46-52.46 141-1 2.84-3.42 4-6.17 4-3.43 0-6.85-2-6.85-5.1v-1.14c4.45-23.82 12-100.41 12-144.38 0-19-1.38-31.77-5.15-31.77-5.48 0-16.8 32.34-37 124-3.08 14.47-5.83 30.64-8.91 48.22-1 7.09-6.86 9.93-11.66 9.93-4.46 0-8.23-2-8.23-5.1l14.59-162.72c.38-5.19-2.1-11.8-4.57-11.46l-86.11 40 13.93-41.5c0-1.08 72.22-16.42 75.61-16.42 5.15 0 11.92 10.52 11.84 23.75l-7.95 107c25.68-121.96 41.61-131.6 55.29-131.6 10.29 0 17.49 23.55 17.49 70.07 0 16.17-.69 35.46-2.75 57.58 15.43-54.46 38.06-102.12 50.06-102.12 4.8 0 7.89 7.94 7.89 26.67v6.24c-1.72 52.48-8.23 99-8.23 118.29 0 6 .69 9.36 2.4 9.36 3.43 0 46-27.51 52.52-33.2 1.3-1.13.41 9.94.41 9.94-51.46 44.44-51.9 39.71-62.19 39.71Z"/><path class="cls-1" d="M697.93 709.3c-.27-3.72-.27-7.44-.27-10.84-14.42 38.42-34.55 52.36-49.24 52.36-9 0-15.79-5.27-17.42-13.63a39 39 0 0 1-.54-5.58c0-28.2 43.53-57.32 66.65-70.65l1.64-7.12c.54-3.41 3.81-4.65 7.07-4.65 4.35 0 8.71 2.17 8.71 6.2v.31s-1.09 16.73-1.09 37.18l.27 15.8c1.36 35.32 5.71 53.6 14.15 53.6 7.89 0 19.59-16.11 36.18-49.88 1.09-2.17 2.18-3.1 3.27-3.1s2.17 1.55 2.17 4a14 14 0 0 1-1.36 5c-19.31 39.35-35.09 57-46.79 57-13.61 0-21.77-24.17-23.4-66Zm-4.62-32.22c-16.06 9.91-46.8 34.39-46.8 53.91a14.54 14.54 0 0 0 .27 3.41c.55 2.79 2.45 4.33 5.44 4.33 9.25 0 28.03-16.11 41.09-61.65Z"/><path class="cls-1" d="M758.06 773.44V659.72c0-4 4.08-6.19 8.16-6.19 3.81 0 7.89 2.17 7.89 6.19v36.57c4.35-19.83 11.15-32.85 17.95-32.85 4.9 0 10.07 7.13 13.88 23.86 4.35 19.83 7.89 31.6 15 31.6 3.54 0 7.62-2.78 13.33-8.67a8.86 8.86 0 0 1 5.72-2.79c1.9 0 3.26.93 3.26 2.48a5 5 0 0 1-1.9 3.41c-9 9.6-15.78 13.94-20.95 13.94-9.25 0-14.15-13.94-19.59-36.87-2.45-10.23-4.63-14.56-7.07-14.56-9 0-17.42 66-19.59 98.22-.28 3.72-4.08 5.57-7.89 5.57-4.12 0-8.2-2.16-8.2-6.19Z"/><path class="cls-1" d="M835.32 736.88c0-17.36 1.63-40 4.9-66.93.54-3.72 4.08-5.27 7.62-5.27 4.08 0 8.43 2.17 8.43 6.2v.62c-3.54 31-5.44 53.91-5.44 69.09 0 16.43 2.18 24.48 6.8 24.48 7.35 0 20.41-18.9 40.54-53.6 1.09-1.86 2.17-2.79 3-2.79 1.36 0 2.18 1.55 2.18 3.72a13.11 13.11 0 0 1-1.63 5.89c-24.49 42.13-41.9 62-52.51 62-9.54-.04-13.89-14.91-13.89-43.41Zm5.68-91.41c0-6.51 4.36-13.63 10.89-13.94h.27c5.44 0 8.43 5.27 8.43 10.84 0 6.2-3.53 12.4-10.33 12.4-6.51 0-9.26-4.34-9.26-9.3Z"/><path class="cls-1" d="M952.31 709.3c-.27-3.72-.27-7.44-.27-10.84-14.42 38.42-34.56 52.36-49.25 52.36-9 0-15.78-5.27-17.41-13.63a39 39 0 0 1-.54-5.58c0-28.2 43.53-57.32 66.65-70.65l1.63-7.12c.55-3.41 3.81-4.65 7.08-4.65 4.35 0 8.7 2.17 8.7 6.2v.31s-1.08 16.73-1.08 37.18l.27 15.8c1.36 35.32 5.71 53.6 14.15 53.6 7.88 0 19.58-16.11 36.18-49.88 1.09-2.17 2.18-3.1 3.26-3.1s2.18 1.55 2.18 4a14 14 0 0 1-1.36 5c-19.32 39.35-35.1 57-46.79 57-13.61 0-21.77-24.17-23.4-66Zm-4.63-32.22c-16 9.91-46.79 34.39-46.79 53.91a14.54 14.54 0 0 0 .27 3.41c.54 2.79 2.45 4.33 5.44 4.33 9.25 0 28.02-16.11 41.08-61.65Zm99.46 44.92c0-34.08 0-57.32 3.53-140.42 0 0 26.83-.93 35.52-.93 0 0-13.62 112.23-13.62 148.48 0 22.31 4 35.63 14.3 35.63 11.12 0 29.4-16.11 58.4-53.6 1.59-2.17 3.18-3.1 4.77-3.1s2.78 1.55 2.78 3.72a8.57 8.57 0 0 1-2 5.58c-29.4 38.11-57.21 62-76.67 62-16.68-.04-27.01-17.08-27.01-57.36Z"/><path class="cls-1" d="M1140 748a96.24 96.24 0 0 1 .82-12.08c.54-5.58 3.53-24.17 4.89-27-7.07-7.44-10.06-15.8-10.06-23.55 0-17 13.87-31.91 27.2-31.91 12.52 0 24.49 12.7 24.49 48.64 0 3.41 0 7.13-.27 11.16a171.8 171.8 0 0 0 17.41-.93h1.36c3 0 4.62 1.24 4.62 2.79 0 1.24-1.63 2.79-4.89 3.1-4.9.61-15.51.92-19.59.92-4.63 39.67-19.32 58.88-30.75 58.88-8.4.07-15.23-10.16-15.23-30.02Zm41.9-43.69c0-29.43-11.43-40.9-14.69-40.9-8.17 0-14.15 9.92-14.15 20.76 0 12.4 7.62 26 28.57 28.51Zm-1.36 14.25c-5.72-.61-16.06-1.85-20.14-3.71-3 13.63-4.08 24.47-4.08 32.53 0 11.77 2.72 17.66 6.26 17.66 5.74.03 14.18-15.46 17.99-46.45Z"/><path class="cls-1" d="m1189 852.76 13.87-193.66c.28-3.71 3.81-5.26 7.62-5.26 4.08 0 8.16 1.86 8.16 5.88l-6 91.72c13.6-70.65 25.84-94.19 35.37-94.19 10.33 0 16.86 28.81 16.86 53.29 0 4-.27 7.75-.54 11.15 10.88-4 20.68-6.5 21.22-6.81l2.18-.31c2.72 0 4.35 1.24 4.35 2.79 0 1.23-1.36 2.78-4.08 3.4a220.34 220.34 0 0 0-25.85 8.37c-4.08 19.52-15.23 26.65-23.94 26.65-6.53 0-11.7-4-11.7-9.61 0-5.89 5.72-13.32 21.22-20.14a203.75 203.75 0 0 0 1.64-27.27c0-13.94-1.36-26.64-4.63-26.64-6 0-18.23 40-40 181.88-.55 3.41-3.81 5-7.35 5-4.05 0-8.4-2.21-8.4-6.24Zm55.23-118c-5.17 2.48-8.71 4.34-8.71 5.88l.27.31a2.27 2.27 0 0 0 1.64.93c2.17-.05 5.16-2.83 6.8-7.17Z"/><path class="cls-1" d="M1279.32 718v-3.41c.55-24.17 12.52-64.76 33.19-64.76h.55c12.79.62 18.77 22 18.77 38.42 0 8.06-1.36 14.87-4.35 17.35l-32.11 14.25c0 33.16 6 47.72 14.7 47.72 10.06 0 24.21-19.83 37.27-53.29.82-2.48 2.18-3.72 3-3.72 1.36 0 2.18 1.55 2.18 4a13.72 13.72 0 0 1-.82 4.64c-16.32 41.21-34.28 61.35-48.15 61.35-14.16.01-24.23-20.75-24.23-62.55Zm46.53-19.22.27-5.88c0-18.59-4.9-27-10.61-27-8.16 0-18.23 16.73-19.86 45.24Z"/><path class="cls-1" d="M1342.44 773.44V659.72c0-4 4.08-6.19 8.16-6.19 3.81 0 7.89 2.17 7.89 6.19v36.57c4.36-19.83 11.16-32.85 18-32.85 4.9 0 10.07 7.13 13.88 23.86 4.35 19.83 7.88 31.6 15 31.6 3.54 0 7.62-2.78 13.33-8.67a8.84 8.84 0 0 1 5.71-2.79c1.91 0 3.27.93 3.27 2.48a5 5 0 0 1-1.91 3.41c-9 9.6-15.78 13.94-21 13.94-9.25 0-14.14-13.94-19.58-36.87-2.45-10.23-4.63-14.56-7.08-14.56-9 0-17.41 66-19.59 98.22-.27 3.72-4.08 5.57-7.89 5.57-4.11 0-8.19-2.16-8.19-6.19Z"/><path class="cls-1" d="M1481.19 709.3c-.27-3.72-.27-7.44-.27-10.84-14.42 38.42-34.55 52.36-49.24 52.36-9 0-15.78-5.27-17.41-13.63a37.66 37.66 0 0 1-.55-5.58c0-28.2 43.53-57.32 66.66-70.65l1.63-7.12c.54-3.41 3.81-4.65 7.07-4.65 4.36 0 8.71 2.17 8.71 6.2v.31s-1.09 16.73-1.09 37.18l.27 15.8c1.36 35.32 5.72 53.6 14.15 53.6 7.89 0 19.59-16.11 36.18-49.88 1.09-2.17 2.18-3.1 3.27-3.1s2.18 1.55 2.18 4a14.2 14.2 0 0 1-1.36 5c-19.32 39.35-35.1 57-46.8 57-13.59 0-21.76-24.17-23.4-66Zm-4.62-32.22c-16 9.91-46.8 34.39-46.8 53.91a14 14 0 0 0 .28 3.41c.54 2.79 2.44 4.33 5.44 4.33 9.25 0 28.02-16.11 41.08-61.65ZM1003.9 463.23c-9-1.62-11.91-16.21-11.91-35.65 0-34.84 9-84.26 9-100.47 0-3.51-.36-5.67-1.45-5.67-4 0-18.4 33.76-55.22 134.23-1.08 2.7-3.61 3.78-6.49 3.78-3.61 0-7.22-1.89-7.22-4.86v-.8a3.53 3.53 0 0 1 0-.56c4.7-23 12.58-95.5 12.58-137.19 0-18.1-1.44-30.25-5.41-30.25-5.78 0-17.69 30.79-39 118-3.25 13.78-6.14 29.17-9.39 45.92-1.08 6.75-7.22 9.45-12.27 9.45-4.69 0-8.66-1.89-8.66-4.86l15.45-154.9c.27-3.5-.95-7.68-2.62-9.7a2.82 2.82 0 0 0-3.28-.76l-83.42 35a2.89 2.89 0 0 1-3.82-3.67l11.87-32a2.89 2.89 0 0 1 2-1.79c10.62-2.83 74.84-15.11 78.12-15.11 5.39 0 12.49 9.94 12.45 22.47a2.44 2.44 0 0 1 0 .27l-5.43 66.16a2.88 2.88 0 0 0 5.66 1c22.15-83.32 36.84-90.58 49.69-90.58 10.82 0 18.4 22.41 18.4 66.71 0 9.44-.27 20-1 31.62a2.89 2.89 0 0 0 5.59 1.16c15.42-42 34.4-75.19 45.2-75.19 5.05 0 8.3 7.57 8.3 25.39v5.94c-1.8 50-8.66 94.26-8.66 112.62 0 5.67.72 8.91 2.53 8.91 3.6 0 89.36-74.09 90.8-74.09s.43 17.33.08 22.23a2.87 2.87 0 0 1-1.11 2.07c-53.17 41.49-88.19 65.08-99.26 65.45a2.39 2.39 0 0 1-.53 0Z"/><circle cx="947.68" cy="361.75" r="159.37" style="fill:none;stroke:#00868e;stroke-miterlimit:10;stroke-width:12px"/></svg>