<svg xmlns="http://www.w3.org/2000/svg" viewBox="0 0 1920 1080"><defs><style>.cls-2{fill:#fff}</style></defs><path style="fill:#00868e" d="M0 0h1920v1080H0z" id="Layer_2" data-name="Layer 2"/><g id="Layer_1" data-name="Layer 1"><path class="cls-2" d="M583 731.68c-.27-3.72-.27-7.44-.27-10.85-14.42 38.42-34.55 52.37-49.24 52.37-9 0-15.78-5.27-17.41-13.64a37.4 37.4 0 0 1-.55-5.57c0-28.2 43.53-57.32 66.66-70.65l1.63-7.12c.54-3.41 3.81-4.65 7.07-4.65 4.36 0 8.71 2.17 8.71 6.2v.31s-1.09 16.73-1.09 37.18l.27 15.8c1.36 35.32 5.72 53.6 14.15 53.6 7.89 0 19.59-16.11 36.18-49.88 1.09-2.17 2.18-3.1 3.27-3.1s2.18 1.55 2.18 4a14.16 14.16 0 0 1-1.36 4.95c-19.32 39.35-35.1 57-46.8 57-13.64.05-21.8-24.12-23.4-65.95Zm-4.62-32.23c-16.05 9.92-46.8 34.4-46.8 53.92a14.54 14.54 0 0 0 .27 3.41c.55 2.78 2.45 4.33 5.45 4.33 9.21 0 27.98-16.11 41.04-61.66Z"/><path class="cls-2" d="M643.09 795.82V682.1c0-4 4.08-6.19 8.16-6.19 3.81 0 7.89 2.17 7.89 6.19v36.57c4.35-19.84 11.15-32.85 18-32.85 4.89 0 10.06 7.13 13.87 23.86 4.35 19.83 7.89 31.6 15 31.6 3.54 0 7.62-2.78 13.34-8.67a8.84 8.84 0 0 1 5.71-2.79c1.9 0 3.26.93 3.26 2.48a5 5 0 0 1-1.9 3.41c-9 9.6-15.78 13.94-21 13.94-9.25 0-14.15-13.94-19.59-36.87-2.45-10.23-4.62-14.57-7.07-14.57-9 0-17.41 66-19.59 98.23-.27 3.71-4.08 5.57-7.89 5.57-4.11-.01-8.19-2.17-8.19-6.19Z"/><path class="cls-2" d="M720.35 759.25c0-17.35 1.64-40 4.9-66.92.54-3.72 4.08-5.27 7.62-5.27 4.08 0 8.43 2.17 8.43 6.2v.62c-3.53 31-5.44 53.91-5.44 69.09 0 16.42 2.18 24.48 6.8 24.48 7.35 0 20.41-18.9 40.54-53.6 1.09-1.86 2.18-2.79 3-2.79 1.36 0 2.18 1.55 2.18 3.72a12.91 12.91 0 0 1-1.63 5.88c-24.49 42.14-41.9 62-52.51 62-9.53-.03-13.89-14.9-13.89-43.41Zm5.72-91.4c0-6.51 4.35-13.63 10.88-13.94h.27c5.44 0 8.44 5.26 8.44 10.84 0 6.2-3.54 12.4-10.34 12.4-6.53 0-9.25-4.34-9.25-9.3Z"/><path class="cls-2" d="M837.34 731.68c-.27-3.72-.27-7.44-.27-10.85-14.42 38.42-34.55 52.37-49.25 52.37-9 0-15.78-5.27-17.41-13.64a38.76 38.76 0 0 1-.54-5.57c0-28.2 43.53-57.32 66.65-70.65l1.64-7.12c.54-3.41 3.8-4.65 7.07-4.65 4.35 0 8.71 2.17 8.71 6.2v.31s-1.09 16.73-1.09 37.18l.27 15.8c1.36 35.32 5.71 53.6 14.15 53.6 7.89 0 19.59-16.11 36.18-49.88 1.09-2.17 2.18-3.1 3.27-3.1s2.17 1.55 2.17 4a13.94 13.94 0 0 1-1.36 4.95c-19.31 39.35-35.09 57-46.79 57-13.61.05-21.74-24.12-23.4-65.95Zm-4.63-32.23c-16.05 9.92-46.79 34.4-46.79 53.92a14.54 14.54 0 0 0 .27 3.41c.55 2.78 2.45 4.33 5.44 4.33 9.25 0 28.03-16.11 41.08-61.66Zm99.46 44.93c0-34.08 0-57.32 3.54-140.42 0 0 26.82-.93 35.51-.93 0 0-13.62 112.23-13.62 148.48 0 22.31 4 35.63 14.3 35.63 11.13 0 29.4-16.11 58.4-53.6 1.59-2.17 3.18-3.1 4.77-3.1s2.78 1.55 2.78 3.72a8.57 8.57 0 0 1-2 5.57c-29.4 38.12-57.21 62-76.68 62-16.67-.03-27-17.07-27-57.35Z"/><path class="cls-2" d="M1025.06 770.41a96.24 96.24 0 0 1 .82-12.08c.54-5.58 3.54-24.17 4.9-27-7.08-7.44-10.07-15.8-10.07-23.55 0-17 13.87-31.91 27.21-31.91 12.51 0 24.48 12.7 24.48 48.64 0 3.41 0 7.13-.27 11.16a171.65 171.65 0 0 0 17.41-.93h1.36c3 0 4.63 1.24 4.63 2.79 0 1.23-1.64 2.78-4.9 3.09-4.9.62-15.51.93-19.59.93-4.62 39.66-19.32 58.87-30.74 58.87-8.44.04-15.24-10.18-15.24-30.01Zm41.9-43.69c0-29.43-11.43-40.9-14.69-40.9-8.16 0-14.15 9.92-14.15 20.76 0 12.39 7.62 26 28.57 28.51ZM1065.6 741c-5.71-.62-16-1.86-20.13-3.71-3 13.63-4.08 24.47-4.08 32.53 0 11.77 2.72 17.66 6.25 17.66 5.72-.03 14.15-15.48 17.96-46.48Z"/><path class="cls-2" d="m1074 875.14 13.88-193.66c.27-3.71 3.8-5.26 7.61-5.26 4.08 0 8.17 1.86 8.17 5.88l-6 91.72c13.6-70.65 25.85-94.2 35.37-94.2 10.34 0 16.87 28.82 16.87 53.3 0 4-.28 7.74-.55 11.15 10.89-4 20.68-6.5 21.22-6.81l2.18-.31c2.72 0 4.35 1.24 4.35 2.78 0 1.24-1.36 2.79-4.08 3.41a219.69 219.69 0 0 0-25.84 8.37c-4.09 19.52-15.24 26.65-24 26.65-6.52 0-11.69-4-11.69-9.61 0-5.89 5.71-13.32 21.22-20.14a205.55 205.55 0 0 0 1.63-27.27c0-13.94-1.36-26.64-4.63-26.64-6 0-18.22 40-40 181.88-.54 3.4-3.81 5-7.35 5-3.98-.05-8.36-2.22-8.36-6.24Zm55.23-118c-5.17 2.47-8.71 4.33-8.71 5.88l.28.31a2.23 2.23 0 0 0 1.63.93c2.2-.05 5.2-2.84 6.83-7.17Z"/><path class="cls-2" d="M1164.36 740.35V737c.54-24.17 12.51-64.76 33.19-64.76h.54c12.79.62 18.77 22 18.77 38.42 0 8.06-1.36 14.87-4.35 17.35l-32.1 14.25c0 33.16 6 47.72 14.69 47.72 10.07 0 24.21-19.83 37.27-53.29.82-2.48 2.18-3.72 3-3.72 1.36 0 2.18 1.55 2.18 4a13.76 13.76 0 0 1-.82 4.64c-16.32 41.21-34.28 61.35-48.15 61.35-14.16-.02-24.22-20.78-24.22-62.61Zm46.52-19.21.27-5.88c0-18.59-4.9-27-10.61-27-8.16 0-18.23 16.73-19.86 45.24Z"/><path class="cls-2" d="M1227.47 795.82V682.1c0-4 4.08-6.19 8.17-6.19 3.8 0 7.89 2.17 7.89 6.19v36.57c4.35-19.84 11.15-32.85 18-32.85 4.9 0 10.07 7.13 13.88 23.86 4.35 19.83 7.89 31.6 15 31.6 3.54 0 7.62-2.78 13.33-8.67a8.86 8.86 0 0 1 5.72-2.79c1.9 0 3.26.93 3.26 2.48a5 5 0 0 1-1.9 3.41c-9 9.6-15.78 13.94-21 13.94-9.25 0-14.15-13.94-19.59-36.87-2.45-10.23-4.63-14.57-7.08-14.57-9 0-17.41 66-19.58 98.23-.28 3.71-4.09 5.57-7.89 5.57-4.13-.01-8.21-2.17-8.21-6.19Z"/><path class="cls-2" d="M1366.23 731.68c-.28-3.72-.28-7.44-.28-10.85-14.42 38.42-34.55 52.37-49.24 52.37-9 0-15.78-5.27-17.41-13.64a38.77 38.77 0 0 1-.55-5.57c0-28.2 43.53-57.32 66.66-70.65l1.63-7.12c.55-3.41 3.81-4.65 7.08-4.65 4.35 0 8.7 2.17 8.7 6.2v.31s-1.09 16.73-1.09 37.18l.28 15.8c1.36 35.32 5.71 53.6 14.14 53.6 7.89 0 19.59-16.11 36.19-49.88 1.09-2.17 2.17-3.1 3.26-3.1s2.18 1.55 2.18 4a14.16 14.16 0 0 1-1.36 4.95c-19.32 39.35-35.1 57-46.8 57-13.62.05-21.76-24.12-23.39-65.95Zm-4.63-32.23c-16 9.92-46.79 34.4-46.79 53.92a14.54 14.54 0 0 0 .27 3.41c.54 2.78 2.45 4.33 5.44 4.33 9.25 0 28.02-16.11 41.08-61.66ZM457 789.28c-8.57-1.7-11.31-17-11.31-37.44 0-36.59 8.57-88.5 8.57-105.52 0-3.69-.35-6-1.37-6-3.78 0-17.49 35.46-52.46 141-1 2.84-3.43 4-6.17 4-3.43 0-6.86-2-6.86-5.1v-1.14c4.46-23.83 12-100.42 12-144.38 0-19-1.37-31.77-5.14-31.77-5.49 0-16.81 32.33-37 124-3.09 14.47-5.83 30.63-8.92 48.22-1 7.09-6.86 9.93-11.66 9.93-4.45 0-8.22-2-8.22-5.11L343 617.21c.37-5.19-2.11-11.8-4.58-11.46l-86.1 39.94 13.92-41.49c0-1.08 72.22-16.42 75.61-16.42 5.15 0 11.92 10.52 11.84 23.74l-8 107C371.43 596.67 387.35 587 401.06 587c10.29 0 17.49 23.55 17.49 70.07 0 16.17-.69 35.45-2.74 57.58 15.42-54.46 38.05-102.12 50.05-102.12 4.8 0 7.89 7.94 7.89 26.67v6.24c-1.71 52.47-8.23 99-8.23 118.28 0 6 .69 9.37 2.4 9.37 3.43 0 80.58-66.44 87.13-72.14 1.29-1.12.41 9.94.41 9.94-51.46 44.48-86.46 78.68-96.8 78.68Zm517.23-343.59c-6.75-1.21-8.91-12.12-8.91-26.67 0-26.07 6.75-63 6.75-75.17 0-2.62-.27-4.24-1.08-4.24-3 0-13.77 25.26-41.31 100.42-.81 2-2.7 2.83-4.86 2.83-2.7 0-5.41-1.41-5.41-3.64v-.8c3.52-17 9.46-71.53 9.46-102.85 0-13.54-1.08-22.63-4-22.63-4.32 0-13.24 23-29.17 88.3-2.43 10.3-4.59 21.82-7 34.35-.81 5.05-5.4 7.07-9.18 7.07-3.51 0-6.48-1.41-6.48-3.64l11.49-115.9c.29-3.7-1.66-8.41-3.6-8.16L813 343.41l11-29.56c0-.77 56.88-11.69 59.55-11.69 4.05 0 9.39 7.49 9.32 16.91l-6.26 76.2c20.26-86.78 32.79-93.65 43.6-93.65 8.1 0 13.77 16.77 13.77 49.91a401 401 0 0 1-2.16 41c12.15-38.8 30-72.74 39.42-72.74 3.78 0 6.21 5.66 6.21 19v4.45c-1.35 37.38-6.48 70.52-6.48 84.25 0 4.25.54 6.67 1.89 6.67 2.7 0 66.86-55.43 67.94-55.43 1.35 0 0 17.59 0 17.59-40.53 31.66-67.12 49.56-75.22 49.56Z"/><circle cx="932.17" cy="369.77" r="119.23" style="fill:none;stroke:#fff;stroke-miterlimit:10;stroke-width:16px"/></g></svg>