<svg data-name="Layer 1" xmlns="http://www.w3.org/2000/svg" viewBox="0 0 254.46 254.46"><path d="M169.29 203.15c-6.75-1.21-8.91-12.12-8.91-26.67 0-26.06 6.75-63 6.75-75.16 0-2.63-.27-4.25-1.08-4.25-3 0-13.77 25.26-41.32 100.43-.81 2-2.7 2.83-4.86 2.83-2.7 0-5.4-1.42-5.4-3.64v-.81c3.51-17 9.45-71.53 9.45-102.85 0-13.54-1.08-22.63-4-22.63-4.32 0-13.23 23-29.16 88.3-2.43 10.31-4.59 21.82-7 34.35-.81 5-5.4 7.07-9.18 7.07-3.51 0-6.48-1.41-6.48-3.63L79.52 80.58c.29-3.7-1.66-8.4-3.61-8.16L8.1 100.87l11-29.55c0-.77 56.88-11.7 59.55-11.7 4 0 9.38 7.49 9.32 16.91l-6.26 76.2c20.22-86.73 32.76-93.64 43.56-93.64 8.1 0 13.78 16.77 13.78 49.91a398.41 398.41 0 0 1-2.17 41c12.16-38.79 30-72.74 39.43-72.74 3.78 0 6.21 5.66 6.21 19v4.44c-1.35 37.39-6.52 70.53-6.52 84.3 0 4.24.54 6.67 1.89 6.67 2.7 0 66.86-55.44 67.94-55.44 1.35 0 0 17.59 0 17.59-40.53 31.66-67.12 49.57-75.22 49.57Z" style="fill:#fff"/><circle cx="127.23" cy="127.23" r="119.23" style="fill:none;stroke:#fff;stroke-miterlimit:10;stroke-width:16px"/></svg>