<svg data-name="Layer 1" xmlns="http://www.w3.org/2000/svg" viewBox="0 0 48 48"><rect width="48" height="48" rx="12" style="fill:#f63232"/><path d="M38.7 17.74a6.91 6.91 0 0 0-1.19-3.1 4.2 4.2 0 0 0-3-1.32C30.3 13 24 13 24 13s-6.29 0-10.49.32a4.2 4.2 0 0 0-3 1.32 6.91 6.91 0 0 0-1.19 3.1A49.57 49.57 0 0 0 9 22.81v2.37a49.25 49.25 0 0 0 .3 5.06 6.94 6.94 0 0 0 1.19 3.11 5 5 0 0 0 3.31 1.33c2.4.24 10.2.32 10.2.32s6.3 0 10.5-.33a4.2 4.2 0 0 0 3-1.32 6.94 6.94 0 0 0 1.19-3.11 49.25 49.25 0 0 0 .3-5.06v-2.37a49.57 49.57 0 0 0-.29-5.07ZM20.9 28.06v-8.79l8.1 4.41Z" style="fill:#fff"/></svg>